<svg xmlns="http://www.w3.org/2000/svg" viewBox="0 0 512 512"><path d="M497 103.9H322.6a37.8 37.8 0 00-8-11.9l-27.5-27.5a37.7 37.7 0 00-53.7 0L205.8 92a37.8 37.8 0 00-8 11.9H15a15 15 0 100 30h182.8c1.8 4.3 4.5 8.3 8 11.8l27.6 27.6a37.7 37.7 0 0053.7 0l27.5-27.6c3.5-3.5 6.2-7.5 8-11.8H497a15 15 0 000-30zm-203.6 20.6L265.8 152a7.9 7.9 0 01-11.2 0l-27.5-27.5a8 8 0 010-11.2l27.5-27.6a7.9 7.9 0 0111.2 0l27.6 27.6c3 3 3 8 0 11.2zM497 243H204a38 38 0 00-8-11.8l-27.6-27.6a37.7 37.7 0 00-53.7 0l-27.5 27.6a37.8 37.8 0 00-8 11.8H15a15 15 0 100 30h64.3c1.8 4.3 4.5 8.3 8 11.8l27.5 27.6a37.7 37.7 0 0053.7 0l27.6-27.6a38 38 0 008-11.8H497a15 15 0 100-30zm-322.2 20.6l-27.5 27.6a7.9 7.9 0 01-11.2 0l-27.6-27.6a8 8 0 010-11.2l27.6-27.6a7.9 7.9 0 0111.2 0l27.5 27.6a7.9 7.9 0 010 11.2zM497 378.1h-74.3a37.8 37.8 0 00-8-11.8l-27.5-27.6a37.7 37.7 0 00-53.7 0l-27.6 27.6a37.8 37.8 0 00-8 11.8H15a15 15 0 000 30H298c1.8 4.3 4.5 8.4 8 11.9l27.6 27.5a37.7 37.7 0 0053.7 0l27.5-27.5c3.5-3.5 6.2-7.6 8-11.9H497a15 15 0 100-30zm-103.5 20.6l-27.6 27.6a7.9 7.9 0 01-11.2 0l-27.5-27.6a8 8 0 010-11.2l27.5-27.5a7.9 7.9 0 0111.2 0l27.6 27.5c3 3.1 3 8.1 0 11.2z"/></svg>