<svg xmlns="http://www.w3.org/2000/svg" viewBox="0 0 368 368">
  <path fill="gray" d="M344 144h-30c-2-8-6-16-10-24l21-21a24 24 0 000-34l-22-22c-9-9-25-9-34 0l-21 21c-8-4-16-8-24-10V24c0-13-11-24-24-24h-32c-13 0-24 11-24 24v30c-8 2-16 6-24 10L99 43c-9-10-24-10-34 0L43 65c-10 10-10 25 0 34l21 21c-4 8-8 16-10 24H24c-13 0-24 11-24 24v32c0 13 11 24 24 24h30c2 8 6 16 10 24l-21 21c-10 9-10 24 0 34l22 22c10 10 25 10 34 0l21-21c8 4 16 8 24 10v30c0 13 11 24 24 24h32c13 0 24-11 24-24v-30c8-2 16-6 24-10l21 21c9 9 25 9 34 0l22-22a24 24 0 000-34l-21-21c4-8 8-16 10-24h30c13 0 24-11 24-24v-32c0-13-11-24-24-24zm8 56c0 4-4 8-8 8h-36c-4 0-7 2-8 6-3 11-7 21-13 31-1 3-1 7 2 10l25 25c2 2 2 4 2 6s0 4-2 5l-23 23c-3 3-8 3-11 0l-25-25c-3-3-7-3-10-2-10 6-20 10-31 13-4 1-6 4-6 8v36c0 4-4 8-8 8h-32c-4 0-8-4-8-8v-36c0-4-2-7-6-8-11-3-21-7-31-13l-4-1-6 3-25 25c-3 3-8 3-11 0l-23-23c-3-3-3-8 0-11l25-25c3-3 3-7 2-10-6-10-10-20-13-31-1-4-4-6-8-6H24c-4 0-8-4-8-8v-32c0-4 4-8 8-8h36c4 0 7-2 8-6 3-11 7-21 13-31 1-3 1-7-2-10L54 88c-3-3-3-8 0-11l23-23c3-3 8-3 11 0l25 25c3 3 7 3 10 2 10-6 20-10 31-13 4-1 6-4 6-8V24c0-4 4-8 8-8h32c4 0 8 4 8 8v36c0 4 2 7 6 8 11 3 21 7 31 13 3 1 7 1 10-2l25-25c3-3 8-3 11 0l23 23c2 1 2 3 2 5l-2 6-25 25c-3 3-3 7-2 10 6 10 10 20 13 31 1 4 4 6 8 6h36c4 0 8 4 8 8v32z"/>
  <path fill="gray" d="M184 112a72 72 0 100 144 72 72 0 000-144zm0 128a56 56 0 110-112 56 56 0 010 112z"/>
</svg>
